# Blender v2.76 (sub 0) OBJ File: ''
# www.blender.org
mtllib robe.mtl
o Cone.001
v -0.442084 -1.107878 -0.816809
v -0.334917 -1.107878 -0.841491
v -0.004851 -1.107878 -0.882841
v 0.106599 -1.107878 -0.874507
v -0.639615 -1.107878 -0.736646
v -0.558427 0.521235 -0.015370
v -0.540850 -1.107878 -0.776728
v -0.812753 -1.107878 -0.628765
v -0.726184 -1.107878 -0.682706
v -0.954844 -1.107878 -0.497312
v -0.883799 -1.107878 -0.563039
v -1.060427 -1.107878 -0.347338
v -1.007636 -1.107878 -0.422325
v -1.125445 -1.107878 -0.184606
v -1.092936 -1.107878 -0.265972
v -1.147399 -1.107878 -0.015371
v -1.136422 -1.107878 -0.099989
v -1.125445 -1.107878 0.153864
v -1.136422 -1.107878 0.069246
v -1.060428 -1.107878 0.316596
v -1.092937 -1.107878 0.235230
v -0.954845 -1.107878 0.466570
v -1.007637 -1.107878 0.391583
v -0.812755 -1.107878 0.598024
v -0.883800 -1.107878 0.532297
v -0.639617 -1.107878 0.705905
v -0.726186 -1.107878 0.651964
v -0.442086 -1.107878 0.786068
v 0.197431 0.547587 0.430443
v -0.540852 -1.107878 0.745986
v -0.227752 -1.107878 0.835432
v -0.334919 -1.107878 0.810750
v -0.004852 -1.107878 0.852100
v -0.116302 -1.107878 0.843766
v 0.218048 -1.107878 0.835432
v 0.106598 -1.107878 0.843766
v 0.432382 -1.107878 0.786068
v 0.325215 -1.107878 0.810750
v 0.629914 -1.107878 0.705905
v 0.531148 -1.107878 0.745987
v 0.803052 -1.107878 0.598024
v 0.716483 -1.107878 0.651965
v 0.945142 -1.107878 0.466570
v 0.874097 -1.107878 0.532297
v 1.050725 -1.107878 0.316596
v 0.432963 0.510291 -0.259895
v 0.997933 -1.107878 0.391583
v 1.115742 -1.107878 0.153865
v 1.083233 -1.107878 0.235230
v 1.137696 -1.107878 -0.015370
v 1.126719 -1.107878 0.069247
v 1.115742 -1.107878 -0.184605
v 1.126719 -1.107878 -0.099988
v 1.050725 -1.107878 -0.347337
v 1.083233 -1.107878 -0.265971
v 0.945142 -1.107878 -0.497311
v 0.997933 -1.107878 -0.422324
v 0.803052 -1.107878 -0.628765
v 0.874097 -1.107878 -0.563038
v 0.629914 -1.107878 -0.736646
v 0.716483 -1.107878 -0.682705
v 0.432383 -1.107878 -0.816809
v 0.531148 -1.107878 -0.776727
v -0.227750 -1.107878 -0.866173
v -0.116301 -1.107878 -0.874507
v 0.218048 -1.107878 -0.866173
v 0.325216 -1.107878 -0.841491
vn -0.204200 0.415500 -0.886400
vn 0.070100 0.341800 -0.937200
vn -0.345600 0.394200 -0.851600
vn -0.219200 0.411200 -0.884800
vn -0.309400 0.399900 -0.862800
vn -0.490700 0.373100 -0.787400
vn -0.634300 0.357200 -0.685600
vn -0.767100 0.346400 -0.540000
vn -0.873200 0.340200 -0.348900
vn -0.933500 0.337500 -0.121100
vn -0.933500 0.337500 0.121100
vn -0.873200 0.340200 0.348900
vn -0.767100 0.346400 0.540000
vn -0.634300 0.357200 0.685600
vn -0.490700 0.373100 0.787400
vn -0.355600 0.325600 0.876100
vn -0.477000 0.365100 0.799500
vn -0.391800 0.337900 0.855800
vn -0.215200 0.283900 0.934400
vn -0.072100 0.254400 0.964400
vn 0.072400 0.237900 0.968600
vn 0.218200 0.234500 0.947300
vn 0.364600 0.244700 0.898400
vn 0.509300 0.269100 0.817400
vn 0.646300 0.307100 0.698600
vn 0.726300 0.459400 0.511300
vn 0.864500 0.415600 0.282600
vn 0.762000 0.452500 0.463200
vn 0.835000 0.437600 0.333600
vn 0.903900 0.411400 0.117300
vn 0.916800 0.381300 -0.118900
vn 0.869600 0.350800 -0.347400
vn 0.773400 0.324700 -0.544500
vn 0.646300 0.307100 -0.698600
vn 0.504500 0.299900 -0.809600
vn 0.358300 0.303700 -0.882800
vn -0.069100 0.374600 -0.924600
vn 0.212800 0.317900 -0.923900
vn 0.000000 -1.000000 -0.000000
vn 0.763900 0.356800 0.537800
vn 0.868300 0.413500 0.273900
vn -0.345600 0.394200 0.851600
vn -0.482100 0.366700 0.795700
vn -0.490600 0.373100 0.787400
vn -0.490600 0.373100 -0.787400
vn -0.333300 0.462900 -0.821300
vn -0.213900 0.411700 -0.885900
usemtl Material.002
s 1
f 1//1 46//1 2//1
f 3//2 46//2 4//2
f 5//3 6//4 7//5
f 8//6 6//6 9//6
f 10//7 6//7 11//7
f 12//8 6//8 13//8
f 14//9 6//9 15//9
f 16//10 6//10 17//10
f 18//11 6//11 19//11
f 20//12 6//12 21//12
f 22//13 6//13 23//13
f 24//14 6//14 25//14
f 26//15 6//15 27//15
f 28//16 29//17 30//18
f 31//19 29//19 32//19
f 33//20 29//20 34//20
f 35//21 29//21 36//21
f 37//22 29//22 38//22
f 39//23 29//23 40//23
f 41//24 29//24 42//24
f 43//25 29//25 44//25
f 45//26 46//27 47//28
f 48//29 46//29 49//29
f 50//30 46//30 51//30
f 52//31 46//31 53//31
f 54//32 46//32 55//32
f 56//33 46//33 57//33
f 58//34 46//34 59//34
f 60//35 46//35 61//35
f 62//36 46//36 63//36
f 64//37 46//37 65//37
f 66//38 46//38 67//38
f 3//39 4//39 66//39 67//39 62//39 63//39 60//39 61//39 58//39 59//39 56//39 57//39 54//39 55//39 52//39 53//39 50//39 51//39 48//39 49//39 45//39 47//39 43//39 44//39 41//39 42//39 39//39 40//39 37//39 38//39 35//39 36//39 33//39 34//39 31//39 32//39 28//39 30//39 26//39 27//39 24//39 25//39 22//39 23//39 20//39 21//39 18//39 19//39 16//39 17//39 14//39 15//39 12//39 13//39 10//39 11//39 8//39 9//39 5//39 7//39 1//39 2//39 64//39 65//39
f 67//38 46//38 62//38
f 65//37 46//37 3//37
f 63//36 46//36 60//36
f 61//35 46//35 58//35
f 59//34 46//34 56//34
f 57//33 46//33 54//33
f 55//32 46//32 52//32
f 53//31 46//31 50//31
f 51//30 46//30 48//30
f 49//29 46//29 45//29
f 47//40 29//40 43//40
f 47//28 46//27 29//41
f 44//25 29//25 41//25
f 42//24 29//24 39//24
f 40//23 29//23 37//23
f 38//22 29//22 35//22
f 36//21 29//21 33//21
f 34//20 29//20 31//20
f 32//19 29//19 28//19
f 30//42 6//42 26//42
f 30//18 29//17 6//43
f 27//15 6//15 24//44
f 25//14 6//14 22//14
f 23//13 6//13 20//13
f 21//12 6//12 18//12
f 19//11 6//11 16//11
f 17//10 6//10 14//10
f 15//9 6//9 12//9
f 13//8 6//8 10//8
f 11//7 6//7 8//7
f 9//6 6//6 5//45
f 7//46 46//46 1//46
f 7//5 6//4 46//47
f 4//2 46//2 66//2
f 2//1 46//1 64//1
o Cone.002
v -1.267946 -0.197745 0.405872
v -1.250110 -0.205857 0.430280
v -1.196140 -0.215065 0.504059
v -1.178537 -0.208027 0.528073
v -1.301785 -0.167015 0.359485
v -1.284865 -0.182380 0.382679
v -1.332490 -0.122961 0.317312
v -1.317137 -0.144988 0.338399
v -1.358883 -0.067275 0.280971
v -1.345686 -0.095118 0.299142
v -1.379948 -0.002097 0.251861
v -0.559260 0.228324 -0.222929
v -1.369415 -0.034686 0.266416
v -1.394875 0.070068 0.231100
v -1.387411 0.033985 0.241480
v -1.403093 0.146446 0.219485
v -1.398984 0.108257 0.225292
v -1.404283 0.224102 0.217463
v -1.403688 0.185274 0.218474
v -1.398401 0.300053 0.225111
v -1.401342 0.262077 0.221287
v -1.385674 0.371379 0.242137
v -1.392038 0.335716 0.233624
v -1.366589 0.435339 0.267885
v -1.376131 0.403359 0.255011
v -1.341880 0.489476 0.301365
v -1.354235 0.462407 0.284625
v -1.312498 0.531708 0.341293
v -0.448100 0.383513 -0.070459
v -1.327189 0.510592 0.321329
v -1.279570 0.560414 0.386132
v -1.296034 0.546061 0.363712
v -1.244363 0.574490 0.434159
v -1.261966 0.567452 0.410145
v -1.208229 0.573394 0.483530
v -1.226296 0.573942 0.458845
v -1.172557 0.557170 0.532347
v -1.190393 0.565282 0.507939
v -1.138718 0.526440 0.578734
v -1.155638 0.541805 0.555540
v -1.108013 0.482385 0.620907
v -1.123366 0.504412 0.599820
v -1.081620 0.426699 0.657248
v -1.094816 0.454542 0.639077
v -1.060555 0.361521 0.686358
v -0.422127 0.008902 -0.016421
v -1.071088 0.394110 0.671803
v -1.045628 0.289357 0.707119
v -1.053092 0.325439 0.696739
v -1.037411 0.212979 0.718734
v -1.041519 0.251168 0.712927
v -1.036220 0.135322 0.720756
v -1.036815 0.174151 0.719745
v -1.042102 0.059372 0.713107
v -1.039161 0.097347 0.716932
v -1.054829 -0.011954 0.696082
v -1.048466 0.023709 0.704595
v -1.073914 -0.075914 0.670334
v -1.064372 -0.043934 0.683208
v -1.098623 -0.130051 0.636853
v -1.086269 -0.102983 0.653594
v -1.128006 -0.172284 0.596926
v -1.113314 -0.151167 0.616890
v -1.232274 -0.213969 0.454689
v -1.214207 -0.214517 0.479374
v -1.160933 -0.200989 0.552087
v -1.144469 -0.186637 0.574507
vn 0.053700 -0.935200 -0.350100
vn 0.309400 -0.949500 0.051500
vn -0.053900 -0.850100 -0.523900
vn -0.137800 -0.733400 -0.665700
vn -0.197400 -0.599700 -0.775500
vn -0.338100 -0.472700 -0.813800
vn -0.169600 -0.723200 -0.669500
vn -0.306800 -0.528100 -0.791800
vn -0.402000 -0.329000 -0.854500
vn -0.442800 -0.181200 -0.878100
vn -0.461800 -0.030200 -0.886500
vn -0.459100 0.124100 -0.879700
vn -0.433100 0.281700 -0.856200
vn -0.381000 0.440900 -0.812700
vn -0.299400 0.597000 -0.744300
vn -0.182000 0.739400 -0.648200
vn -0.175300 0.750700 -0.636900
vn -0.181000 0.741100 -0.646500
vn -0.085700 0.866500 -0.491800
vn 0.035200 0.951800 -0.304700
vn 0.170000 0.980100 -0.102700
vn 0.304400 0.948000 0.092700
vn 0.426100 0.865700 0.262700
vn 0.529100 0.749600 0.397800
vn 0.612600 0.614600 0.496900
vn 0.761100 0.453200 0.464000
vn 0.760300 0.153100 0.631300
vn 0.769000 0.388500 0.507700
vn 0.775700 0.317400 0.545400
vn 0.775700 0.317400 0.545500
vn 0.778400 0.175400 0.602800
vn 0.770400 0.028400 0.636900
vn 0.751900 -0.123500 0.647600
vn 0.721900 -0.279900 0.632900
vn 0.678000 -0.439500 0.589200
vn 0.616900 -0.598000 0.511700
vn 0.535300 -0.746400 0.395500
vn 0.535300 -0.746300 0.395500
vn 0.178800 -0.972000 -0.152400
vn 0.431600 -0.869600 0.239800
vn -0.806900 0.003000 0.590600
vn 0.751900 -0.123400 0.647600
vn 0.679000 0.471000 0.563200
vn 0.759000 0.144200 0.635000
vn 0.529100 0.749500 0.397800
vn -0.185900 0.740200 -0.646200
vn -0.175200 0.751000 -0.636700
vn -0.234800 -0.458700 -0.857000
vn -0.164900 -0.728700 -0.664700
vn 0.053700 -0.935200 -0.350000
usemtl Material.002
s 1
f 68//48 113//48 69//48
f 70//49 113//49 71//49
f 72//50 113//50 73//50
f 74//51 113//51 75//51
f 76//52 113//52 77//52
f 78//53 79//54 80//55
f 81//56 79//56 82//56
f 83//57 79//57 84//57
f 85//58 79//58 86//58
f 87//59 79//59 88//59
f 89//60 79//60 90//60
f 91//61 79//61 92//61
f 93//62 79//62 94//62
f 95//63 96//64 97//65
f 98//66 96//66 99//66
f 100//67 96//67 101//67
f 102//68 96//68 103//68
f 104//69 96//69 105//69
f 106//70 96//70 107//70
f 108//71 96//71 109//71
f 110//72 96//72 111//72
f 112//73 113//74 114//75
f 115//76 113//77 116//77
f 117//78 113//78 118//78
f 119//79 113//79 120//79
f 121//80 113//80 122//80
f 123//81 113//81 124//81
f 125//82 113//82 126//82
f 127//83 113//83 128//83
f 129//84 113//85 130//85
f 131//86 113//86 132//86
f 133//87 113//87 134//87
f 70//88 71//88 133//88 134//88 129//88 130//88 127//88 128//88 125//88 126//88 123//88 124//88 121//88 122//88 119//88 120//88 117//88 118//88 115//88 116//88 112//88 114//88 110//88 111//88 108//88 109//88 106//88 107//88 104//88 105//88 102//88 103//88 100//88 101//88 98//88 99//88 95//88 97//88 93//88 94//88 91//88 92//88 89//88 90//88 87//88 88//88 85//88 86//88 83//88 84//88 81//88 82//88 78//88 80//88 76//88 77//88 74//88 75//88 72//88 73//88 68//88 69//88 131//88 132//88
f 134//87 113//87 129//87
f 132//86 113//86 70//86
f 130//85 113//85 127//85
f 128//83 113//83 125//83
f 126//82 113//82 123//82
f 124//81 113//81 121//81
f 122//80 113//80 119//89
f 120//79 113//79 117//79
f 118//78 113//78 115//78
f 116//77 113//77 112//77
f 114//90 96//90 110//90
f 114//75 113//74 96//91
f 111//72 96//72 108//72
f 109//71 96//71 106//92
f 107//70 96//70 104//70
f 105//69 96//69 102//69
f 103//68 96//68 100//68
f 101//67 96//67 98//67
f 99//66 96//66 95//66
f 97//93 79//93 93//93
f 97//65 96//64 79//94
f 94//62 79//62 91//62
f 92//61 79//61 89//61
f 90//60 79//60 87//60
f 88//59 79//59 85//59
f 86//58 79//58 83//58
f 84//57 79//57 81//57
f 82//56 79//56 78//56
f 80//95 113//95 76//95
f 80//55 79//54 113//96
f 77//52 113//52 74//52
f 75//51 113//51 72//51
f 73//50 113//50 68//50
f 71//49 113//49 133//49
f 69//48 113//48 131//97
o Cone
v 1.314533 0.268286 0.237532
v 1.311493 0.289506 0.240942
v 1.296979 0.347939 0.259797
v 0.559476 0.163386 -0.105804
v 1.288764 0.363220 0.271536
v 1.314981 0.222255 0.239602
v 1.314757 0.245271 0.238567
v 1.309782 0.174400 0.250481
v 1.312382 0.198327 0.245042
v 1.299136 0.126559 0.269752
v 1.304459 0.150480 0.260116
v 1.283451 0.080573 0.296673
v 1.291293 0.103566 0.283212
v 1.263331 0.038207 0.330210
v 1.273391 0.059390 0.313441
v 1.239548 0.001090 0.369074
v 1.251439 0.019648 0.349642
v 1.213016 -0.029352 0.411772
v 1.226282 -0.014131 0.390423
v 1.184756 -0.051948 0.456663
v 1.198886 -0.040650 0.434218
v 1.155853 -0.065831 0.502022
v 0.408141 0.055192 0.132305
v 1.170305 -0.058889 0.479342
v 1.127418 -0.070467 0.546105
v 1.141635 -0.068149 0.524063
v 1.100543 -0.065677 0.587219
v 1.113981 -0.068072 0.566662
v 1.076262 -0.051647 0.623783
v 1.088403 -0.058662 0.605501
v 1.055507 -0.028914 0.654393
v 1.065885 -0.040281 0.639088
v 1.039077 0.001647 0.677871
v 1.047292 -0.013634 0.666132
v 1.027602 0.038861 0.693317
v 1.033339 0.020254 0.685594
v 1.021523 0.081300 0.700136
v 1.024562 0.060081 0.696726
v 1.021075 0.127331 0.698066
v 1.021299 0.104316 0.699101
v 1.026273 0.175187 0.687187
v 1.023674 0.151259 0.692626
v 1.036920 0.223027 0.667916
v 1.031597 0.199107 0.677551
v 1.052605 0.269014 0.640995
v 0.461601 0.269435 0.033900
v 1.044762 0.246020 0.654456
v 1.072725 0.311379 0.607458
v 1.062665 0.290197 0.624227
v 1.096508 0.348496 0.568594
v 1.084617 0.329938 0.588026
v 1.123039 0.378938 0.525896
v 1.109774 0.363717 0.547245
v 1.151299 0.401534 0.481005
v 1.137169 0.390236 0.503450
v 1.180203 0.415417 0.435646
v 1.165751 0.408476 0.458326
v 1.208638 0.420053 0.391563
v 1.194420 0.417735 0.413605
v 1.235512 0.415263 0.350449
v 1.222075 0.417658 0.371006
v 1.259794 0.401233 0.313885
v 1.247653 0.408248 0.332167
v 1.308454 0.310725 0.244351
v 1.302716 0.329332 0.252074
v 1.280548 0.378500 0.283275
v 1.270171 0.389867 0.298580
vn 0.382500 0.199800 -0.902100
vn 0.382500 0.199700 -0.902100
vn 0.193900 0.661100 -0.724800
vn 0.417900 -0.036800 -0.907800
vn 0.418900 -0.244300 -0.874600
vn 0.394800 -0.417500 -0.818400
vn 0.352900 -0.559400 -0.750000
vn 0.297800 -0.675500 -0.674600
vn 0.297800 -0.675400 -0.674600
vn 0.231100 -0.770300 -0.594300
vn 0.153100 -0.847100 -0.508800
vn 0.062800 -0.906800 -0.416900
vn -0.007600 -0.954800 -0.297100
vn 0.039800 -0.920100 -0.389800
vn 0.001700 -0.948900 -0.315700
vn -0.082000 -0.984300 -0.156400
vn -0.173000 -0.984900 0.001600
vn -0.173000 -0.984900 0.001700
vn -0.280300 -0.943600 0.175900
vn -0.398100 -0.844800 0.357500
vn -0.512200 -0.679200 0.525700
vn -0.603600 -0.457200 0.653200
vn -0.659300 -0.210400 0.721800
vn -0.679700 0.026300 0.733000
vn -0.674300 0.232600 0.700900
vn -0.653400 0.403400 0.640600
vn -0.599800 0.546600 0.584300
vn -0.642800 0.448500 0.621000
vn -0.607900 0.530000 0.591300
vn -0.534300 0.665900 0.520600
vn -0.468400 0.764300 0.443200
vn -0.402100 0.845000 0.352600
vn -0.334400 0.909400 0.247200
vn -0.263900 0.956500 0.124500
vn -0.263900 0.956500 0.124600
vn -0.189000 0.981800 -0.018700
vn -0.108500 0.976800 -0.184700
vn -0.071700 0.914400 -0.398500
vn 0.069400 0.820300 -0.567700
vn -0.052400 0.904400 -0.423400
vn 0.306300 0.444000 -0.842100
vn 0.061600 0.820800 -0.567900
vn 0.061500 0.820800 -0.567900
vn 0.838300 0.032600 0.544200
vn -0.023000 0.928200 -0.371400
vn 0.072000 0.818100 -0.570600
vn -0.624000 0.542200 0.562700
vn -0.643700 0.446200 0.621700
vn -0.653400 0.403500 0.640600
vn -0.041600 -0.947700 -0.316500
vn 0.040800 -0.919200 -0.391700
usemtl Material.002
s 1
f 135//98 138//99 136//99
f 137//100 138//100 139//100
f 140//101 138//101 141//101
f 142//102 138//102 143//102
f 144//103 138//103 145//103
f 146//104 138//104 147//104
f 148//105 138//106 149//106
f 150//107 138//107 151//107
f 152//108 138//108 153//108
f 154//109 138//109 155//109
f 156//110 157//111 158//112
f 159//113 157//113 160//113
f 161//114 157//115 162//115
f 163//116 157//116 164//116
f 165//117 157//117 166//117
f 167//118 157//118 168//118
f 169//119 157//119 170//119
f 171//120 157//120 172//120
f 173//121 157//121 174//121
f 175//122 157//122 176//122
f 177//123 157//123 178//123
f 179//124 180//125 181//126
f 182//127 180//127 183//127
f 184//128 180//128 185//128
f 186//129 180//129 187//129
f 188//130 180//130 189//130
f 190//131 180//132 191//132
f 192//133 180//133 193//133
f 194//134 180//134 195//134
f 196//135 138//136 197//137
f 198//138 138//138 199//138
f 200//139 138//140 201//140
f 137//141 139//141 200//141 201//141 196//141 197//141 194//141 195//141 192//141 193//141 190//141 191//141 188//141 189//141 186//141 187//141 184//141 185//141 182//141 183//141 179//141 181//141 177//141 178//141 175//141 176//141 173//141 174//141 171//141 172//141 169//141 170//141 167//141 168//141 165//141 166//141 163//141 164//141 161//141 162//141 159//141 160//141 156//141 158//141 154//141 155//141 152//141 153//141 150//141 151//141 148//141 149//141 146//141 147//141 144//141 145//141 142//141 143//141 140//141 141//141 135//141 136//141 198//141 199//141
f 201//140 138//140 196//140
f 199//138 138//138 137//138
f 197//142 180//142 194//142
f 197//137 138//136 180//143
f 195//134 180//134 192//134
f 193//133 180//133 190//133
f 191//132 180//132 188//132
f 189//130 180//130 186//130
f 187//129 180//129 184//129
f 185//128 180//128 182//128
f 183//127 180//127 179//127
f 181//144 157//144 177//144
f 181//126 180//125 157//145
f 178//123 157//123 175//146
f 176//122 157//122 173//122
f 174//121 157//121 171//121
f 172//120 157//120 169//120
f 170//119 157//119 167//119
f 168//118 157//118 165//118
f 166//117 157//117 163//117
f 164//116 157//116 161//116
f 162//115 157//115 159//115
f 160//113 157//113 156//113
f 158//147 138//147 154//147
f 158//112 157//111 138//148
f 155//109 138//109 152//109
f 153//108 138//108 150//108
f 151//107 138//107 148//107
f 149//106 138//106 146//106
f 147//104 138//104 144//104
f 145//103 138//103 142//103
f 143//102 138//102 140//102
f 141//101 138//101 135//101
f 139//100 138//100 200//100
f 136//99 138//99 198//99
